<svg viewBox="-676.2208398133747 -335.4510108864699 1352.4416796267494 435.4510108864699" xmlns="http://www.w3.org/2000/svg" xmlns:xlink="http://www.w3.org/1999/xlink" version="1.1" class="jsx-2263963463 artboard-inner" style="width: 339px; height: 109.149px; max-height: 100%;"><g transform="translate(-684.774494556765 100.00000000000001) scale(2.160013824088474)" fill="#232323"><g id="line1"><path d="M17.280-7.920C15.744-7.920 14.664-8.244 14.040-8.892C13.416-9.540 13.104-10.632 13.104-12.168L13.104-34.128C13.104-35.664 13.416-36.756 14.040-37.404C14.664-38.052 15.744-38.376 17.280-38.376L22.392-38.376C23.928-38.376 25.020-38.052 25.668-37.404C26.316-36.756 26.640-35.664 26.640-34.128L26.640-12.168C26.640-10.632 26.316-9.540 25.668-8.892C25.020-8.244 23.928-7.920 22.392-7.920ZM23.904 0C27.696 0 30.624-1.008 32.688-3.024C34.752-5.040 35.784-7.944 35.784-11.736L35.784-34.560C35.784-38.352 34.752-41.256 32.688-43.272C30.624-45.288 27.696-46.296 23.904-46.296L15.840-46.296C12.048-46.296 9.120-45.288 7.056-43.272C4.992-41.256 3.960-38.352 3.960-34.560L3.960-11.736C3.960-7.944 4.992-5.040 7.056-3.024C9.120-1.008 12.048 0 15.840 0Z"></path><path d="M114.883 0C115.843 0 116.323-0.504 116.323-1.512L116.323-6.408C116.323-7.464 115.843-7.992 114.883-7.992L99.691-7.992C99.115-7.992 98.827-8.256 98.827-8.784L98.827-44.784C98.827-45.792 98.323-46.296 97.315-46.296L91.195-46.296C90.187-46.296 89.683-45.792 89.683-44.784L89.683-1.512C89.683-0.504 90.187 0 91.195 0Z"></path><path d="M177.206-7.920C176.678-7.920 176.414-8.184 176.414-8.712L176.414-37.584C176.414-38.112 176.678-38.376 177.206-38.376L185.054-38.376C186.590-38.376 187.682-38.052 188.330-37.404C188.978-36.756 189.302-35.664 189.302-34.128L189.302-12.168C189.302-10.632 188.978-9.540 188.330-8.892C187.682-8.244 186.590-7.920 185.054-7.920ZM167.270-1.512C167.270-0.504 167.774 0 168.782 0L186.566 0C190.310 0 193.226-1.020 195.314-3.060C197.402-5.100 198.446-7.992 198.446-11.736L198.446-34.560C198.446-38.304 197.402-41.196 195.314-43.236C193.226-45.276 190.310-46.296 186.566-46.296L168.782-46.296C167.774-46.296 167.270-45.792 167.270-44.784Z"></path><path d="M271.138 0C274.882 0 277.786-1.020 279.850-3.060C281.914-5.100 282.946-7.992 282.946-11.736L282.946-23.760C282.946-24.864 282.394-25.416 281.290-25.416L268.690-25.416C267.682-25.416 267.178-24.912 267.178-23.904L267.178-19.008C267.178-18.000 267.682-17.496 268.690-17.496L273.010-17.496C273.538-17.496 273.802-17.232 273.802-16.704L273.802-12.168C273.802-10.632 273.490-9.540 272.866-8.892C272.242-8.244 271.162-7.920 269.626-7.920L264.946-7.920C263.458-7.920 262.390-8.244 261.742-8.892C261.094-9.540 260.770-10.632 260.770-12.168L260.770-34.128C260.770-35.664 261.094-36.756 261.742-37.404C262.390-38.052 263.458-38.376 264.946-38.376L269.626-38.376C271.162-38.376 272.242-38.052 272.866-37.404C273.490-36.756 273.802-35.664 273.802-34.128L273.802-32.400C273.802-31.344 274.306-30.816 275.314-30.816L281.434-30.816C282.442-30.816 282.946-31.344 282.946-32.400L282.946-34.560C282.946-38.304 281.914-41.196 279.850-43.236C277.786-45.276 274.882-46.296 271.138-46.296L263.506-46.296C259.714-46.296 256.786-45.288 254.722-43.272C252.658-41.256 251.626-38.352 251.626-34.560L251.626-11.736C251.626-7.944 252.658-5.040 254.722-3.024C256.786-1.008 259.714 0 263.506 0Z"></path><path d="M341.669 0C342.149 0 342.497-0.108 342.713-0.324C342.929-0.540 343.085-0.936 343.181-1.512L345.197-9.432L359.237-9.432L361.253-1.512C361.349-0.936 361.493-0.540 361.685-0.324C361.877-0.108 362.237 0 362.765 0L369.677 0C370.541 0 370.829-0.504 370.541-1.512L359.165-44.784C358.925-45.792 358.205-46.296 357.005-46.296L347.429-46.296C346.325-46.296 345.605-45.792 345.269-44.784L333.893-1.512C333.605-0.504 333.893 0 334.757 0ZM352.109-37.584L352.397-37.584L357.581-16.776L346.925-16.776Z"></path><path d="M452.952-46.296C452.184-46.296 451.728-45.960 451.584-45.288L443.880-19.872L443.448-19.872L435.816-45.288C435.576-45.960 435.120-46.296 434.448-46.296L423.720-46.296C422.712-46.296 422.208-45.792 422.208-44.784L422.208-1.512C422.208-0.504 422.712 0 423.720 0L429.624 0C430.248 0 430.656-0.108 430.848-0.324C431.040-0.540 431.136-0.936 431.136-1.512L431.136-35.712L431.424-35.712L438.912-11.520C439.200-10.560 439.800-10.080 440.712-10.080L446.760-10.080C447.672-10.080 448.272-10.560 448.560-11.520L455.904-35.640L456.192-35.640L456.192-1.512C456.192-0.504 456.696 0 457.704 0L463.608 0C464.616 0 465.120-0.504 465.120-1.512L465.120-44.784C465.120-45.792 464.616-46.296 463.608-46.296Z"></path><path d="M544.795 0C545.755 0 546.235-0.504 546.235-1.512L546.235-6.408C546.235-7.416 545.755-7.920 544.795-7.920L529.747-7.920C529.171-7.920 528.883-8.184 528.883-8.712L528.883-18.720C528.883-19.248 529.171-19.512 529.747-19.512L542.059-19.512C543.067-19.512 543.571-20.016 543.571-21.024L543.571-25.920C543.571-26.928 543.067-27.432 542.059-27.432L529.747-27.432C529.171-27.432 528.883-27.696 528.883-28.224L528.883-37.584C528.883-38.112 529.171-38.376 529.747-38.376L544.795-38.376C545.755-38.376 546.235-38.880 546.235-39.888L546.235-44.784C546.235-45.792 545.755-46.296 544.795-46.296L521.251-46.296C520.243-46.296 519.739-45.792 519.739-44.784L519.739-1.512C519.739-0.504 520.243 0 521.251 0Z"></path><path d="M598.334-11.808C598.334-8.064 599.390-5.160 601.502-3.096C603.614-1.032 606.542 0 610.286 0L618.134 0C621.878 0 624.806-1.032 626.918-3.096C629.030-5.160 630.086-8.064 630.086-11.808L630.086-14.256C630.086-17.136 629.522-19.500 628.394-21.348C627.266-23.196 625.862-24.480 624.182-25.200C621.014-26.496 617.390-27.312 613.310-27.648C609.374-27.984 607.406-29.280 607.406-31.536L607.406-32.904C607.406-35.064 607.754-36.516 608.450-37.260C609.146-38.004 610.478-38.376 612.446-38.376L615.254-38.376C617.174-38.376 618.494-38.040 619.214-37.368C619.934-36.696 620.294-35.424 620.294-33.552L620.294-33.120C620.294-32.112 620.798-31.608 621.806-31.608L627.926-31.608C628.934-31.608 629.438-32.112 629.438-33.120L629.438-34.488C629.438-38.232 628.382-41.136 626.270-43.200C624.158-45.264 621.206-46.296 617.414-46.296L610.214-46.296C606.470-46.296 603.542-45.264 601.430-43.200C599.318-41.136 598.262-38.232 598.262-34.488L598.262-31.968C598.262-28.992 598.826-26.556 599.954-24.660C601.082-22.764 602.486-21.492 604.166-20.844C605.846-20.196 607.658-19.668 609.602-19.260C611.546-18.852 613.358-18.576 615.038-18.432C616.718-18.288 618.122-17.844 619.250-17.100C620.378-16.356 620.942-15.288 620.942-13.896L620.942-13.032C620.942-11.064 620.570-9.720 619.826-9.000C619.082-8.280 617.774-7.920 615.902-7.920L612.518-7.920C610.598-7.920 609.278-8.256 608.558-8.928C607.838-9.600 607.478-10.848 607.478-12.672L607.478-13.248C607.478-14.256 606.974-14.760 605.966-14.760L599.846-14.760C598.838-14.760 598.334-14.256 598.334-13.248Z"></path></g></g><g transform="translate(-185.87730852068128 -395.5724785035847) scale(3.704712858749908)" id="logomark"><g fill="#232323"><path d="M20.18 16.59c-.57.21-1.57.56-2.23.79-1.06.36-1.24.45-1.5.7-.47.46-.49.59-.39 3.09.04 1.19.1 2.38.13 2.64l.04.48h7.21v-.55c-.01-.3-.05-1.55-.1-2.78-.06-1.23-.09-2.24-.08-2.25.04-.04 63.53 4.89 63.57 4.94.06.06 2.01 45.09 1.96 45.14-.04.05-63.03 10.24-63.06 10.21-.01-.01-.06-.91-.1-2-.05-1.08-.09-1.99-.1-1.99 0-.01-1.6.2-3.54.46l-3.52.48.04 1.06c.08 1.74.16 2.47.28 2.74.16.3.38.55.6.67.23.12 4.33 1.11 4.76 1.16.21.01 4.29-.63 11.56-1.82 6.18-1.02 11.3-1.87 11.39-1.89.16-.04.16-.03.16.6v.63l-.19.04c-.11.02-.69.12-1.3.22-.6.11-1.11.2-1.12.21-.02.01-.01.73.02 1.59l.05 1.56.4.09c.22.04 1.28.27 2.35.49l1.94.41 11.63-2.23c6.4-1.23 11.71-2.24 11.8-2.27l.17-.04-.05-1.43c-.03-.79-.07-1.45-.1-1.47-.03-.03-.46-.1-.97-.17-.5-.06-1.02-.13-1.14-.16l-.23-.04-.05-.91c-.03-.51-.04-.94-.02-.95s4.3-.73 9.52-1.6c7.32-1.21 9.54-1.6 9.68-1.69.1-.07.26-.28.35-.48.16-.32.18-.41.16-1.16-.01-.45-.42-10.95-.91-23.33-.7-17.76-.91-22.6-.99-22.87-.16-.53-.53-.84-1.07-.9-1.21-.13-65.49-5.79-65.72-5.78-.15-.02-.73.15-1.29.36zm43.25 59.16c0 .52-.01.56-.16.6-.43.1-8.71 1.49-8.73 1.46-.01-.01-.04-.28-.05-.6l-.03-.57 4.29-.72c2.36-.4 4.37-.72 4.49-.73l.19-.01v.57zM10.18 25.85c0 .35.02.64.06.64.03"></path></g></g></svg>